<svg xmlns="http://www.w3.org/2000/svg" viewBox="0 0 30 26" fill="none">
  <path fill-rule="evenodd" clip-rule="evenodd"
    d="M2.4872 23.0197H27.5132V5.83776H2.4872V23.0197ZM18.768 2.22584C19.3585 2.22584 19.8378 2.70741 19.8378 3.30136C19.8378 3.89559 19.3585 4.37688 18.768 4.37688C18.1771 4.37688 17.6978 3.89559 17.6978 3.30136C17.6978 2.70741 18.1771 2.22584 18.768 2.22584ZM22.5842 2.22584C23.1753 2.22584 23.654 2.70741 23.654 3.30136C23.654 3.89559 23.1753 4.37688 22.5842 4.37688C21.9933 4.37688 21.5146 3.89559 21.5146 3.30136C21.5146 2.70741 21.9933 2.22584 22.5842 2.22584ZM26.401 2.22584C26.9918 2.22584 27.4705 2.70741 27.4705 3.30136C27.4705 3.89559 26.9918 4.37688 26.401 4.37688C25.8101 4.37688 25.3308 3.89559 25.3308 3.30136C25.3308 2.70741 25.8101 2.22584 26.401 2.22584ZM27.9905 0.614815H2.00958C1.08369 0.614815 0.333374 1.3691 0.333374 2.2999V23.5243C0.333374 24.4551 1.08369 25.2094 2.00958 25.2094H27.9905C28.9164 25.2094 29.6667 24.4551 29.6667 23.5243V2.2999C29.6667 1.3691 28.9164 0.614815 27.9905 0.614815Z"
    fill="#131B28" />
  <path fill-rule="evenodd" clip-rule="evenodd"
    d="M10.2792 21.1919C10.6654 20.6039 11.403 20.2759 12 20.5049C12.5971 20.7339 13.2647 20.3942 13.4911 19.7458C13.7186 19.0973 13.4174 18.3879 12.8204 18.1597C12.2233 17.9307 11.9007 17.2357 11.9978 16.5864C12.0946 15.9377 12.6688 15.3968 13.3336 15.3863C13.9978 15.3747 14.5273 14.8049 14.5158 14.1127C14.5045 13.4223 13.9563 12.8701 13.2918 12.8811C12.6273 12.8922 12.019 12.3553 11.8857 11.6895C11.8468 11.4926 11.8524 11.286 11.8888 11.0845C11.9749 10.6268 12.2482 10.2145 12.6437 10.0414C13.2085 9.79305 13.4468 9.05437 13.1749 8.39061C12.9028 7.7277 12.2047 7.39114 11.6156 7.63916C11.3039 7.77027 10.9556 7.76885 10.6437 7.66754C10.3823 7.54665 10.1426 7.35737 9.96562 7.11275C9.69067 6.73362 9.58397 6.25801 9.67853 5.83801H3.97356C6.62562 7.26514 9.14868 10.1429 9.21163 13.9521C9.28023 18.1044 7.10155 21.4303 3.89734 23.0197H10.3507C9.88601 22.5481 9.89787 21.7711 10.2792 21.1919Z"
    fill="#2277F6" />
  <path fill-rule="evenodd" clip-rule="evenodd"
    d="M18.3532 7.49274C18.9008 7.88265 19.0109 8.6656 18.7184 9.30438C18.4257 9.94374 17.7471 10.3805 17.1227 10.2468C16.4974 10.112 15.8894 10.5496 15.7632 11.2256C15.6362 11.901 16.0418 12.5559 16.6665 12.6907C17.2915 12.825 17.7158 13.4635 17.718 14.1193C17.7211 14.7754 17.2353 15.3977 16.5799 15.5101C15.9255 15.6233 15.4885 16.2678 15.6051 16.9494C15.7209 17.631 16.3458 18.0925 17.0013 17.9792C17.6559 17.866 18.3396 18.3039 18.5714 18.941C18.6397 19.1302 18.6659 19.3357 18.6609 19.5392C18.6445 20.0057 18.4367 20.4544 18.0731 20.6868C17.5523 21.0196 17.4276 21.7859 17.7976 22.4002C17.9535 22.6588 18.1996 22.875 18.4712 23.0197H26.1089C23.6788 21.8094 21.4233 19.5335 20.8717 16.2953C20.0889 11.7057 22.2521 7.70585 25.8642 5.83773H18.0765C17.7285 6.40728 17.8369 7.12581 18.3532 7.49274Z"
    fill="#EE4536" />
</svg>
